<?xml version="1.0" standalone="no"?>
<!DOCTYPE svg PUBLIC "-//W3C//DTD SVG 20010904//EN"
 "http://www.w3.org/TR/2001/REC-SVG-20010904/DTD/svg10.dtd">
<svg version="1.0" xmlns="http://www.w3.org/2000/svg"
 width="880.000000pt" height="1280.000000pt" viewBox="0 0 880.000000 1280.000000"
 preserveAspectRatio="xMidYMid meet">
<metadata>
Created by potrace 1.15, written by Peter Selinger 2001-2017
</metadata>
<g transform="translate(0.000000,1280.000000) scale(0.100000,-0.100000)"
fill="#000000" stroke="none">
<path d="M4455 12785 c-206 -38 -397 -144 -565 -315 -256 -260 -426 -650 -471
-1081 -15 -139 -6 -428 16 -559 67 -395 222 -720 457 -958 288 -292 650 -396
1001 -286 462 145 815 637 913 1274 24 155 24 463 1 615 -63 409 -215 737
-457 989 -252 262 -580 379 -895 321z"/>
<path d="M7355 11794 c-11 -2 -51 -12 -89 -20 -175 -40 -346 -142 -501 -298
-262 -264 -430 -647 -476 -1085 -14 -140 -7 -429 15 -557 67 -396 223 -720
461 -960 150 -152 300 -244 481 -296 69 -20 101 -23 249 -23 159 1 176 3 255
29 272 89 476 254 654 529 134 205 229 468 273 757 23 157 23 453 -1 610 -99
652 -456 1144 -933 1286 -73 22 -112 27 -228 30 -77 1 -149 1 -160 -2z"/>
<path d="M850 11256 c-296 -63 -527 -251 -682 -554 -334 -658 -152 -1649 410
-2235 194 -202 409 -334 650 -399 113 -31 344 -30 457 0 166 46 297 125 426
258 372 384 472 1074 253 1736 -109 328 -284 611 -516 834 -184 177 -371 286
-593 346 -93 25 -315 33 -405 14z"/>
<path d="M4955 8550 c-991 -111 -1841 -723 -2399 -1728 -309 -559 -502 -1231
-557 -1943 -15 -202 -7 -763 15 -949 71 -624 214 -1144 460 -1679 140 -304
369 -675 582 -941 136 -171 441 -476 605 -607 756 -602 1634 -827 2487 -637
743 165 1413 649 1892 1364 678 1014 917 2365 654 3700 -334 1693 -1462 3034
-2824 3356 -213 51 -340 65 -595 69 -132 2 -276 0 -320 -5z"/>
</g>
</svg>
